<?xml version="1.0" encoding="UTF-8" standalone="no" ?>
<!DOCTYPE svg PUBLIC "-//W3C//DTD SVG 1.1//EN" "http://www.w3.org/Graphics/SVG/1.1/DTD/svg11.dtd">
<svg xmlns="http://www.w3.org/2000/svg" xmlns:xlink="http://www.w3.org/1999/xlink" version="1.1" width="297.70071899414063" height="259.24672" xml:space="preserve">
<desc>Created with Fabric.js 1.6.0-rc.1</desc>
<defs></defs>
<g style="stroke: none; stroke-width: 1; stroke-dasharray: none; stroke-linecap: butt; stroke-linejoin: miter; stroke-miterlimit: 10; fill: none; fill-rule: nonzero; opacity: 1;" transform="translate(18.000000000000014 10) scale(0.49 0.35)" >
  <rect x="389.81" y="277.69" rx="0" ry="0" width="102.26" height="39" style="stroke: none; stroke-width: 1; stroke-dasharray: none; stroke-linecap: butt; stroke-linejoin: miter; stroke-miterlimit: 10; fill: #e67e24; fill-rule: nonzero; opacity: 1;" transform=" matrix(1 0 0 1 0 0) "/>
  <rect x="19.93" y="277.69" rx="0" ry="0" width="102.25" height="39" style="stroke: none; stroke-width: 1; stroke-dasharray: none; stroke-linecap: butt; stroke-linejoin: miter; stroke-miterlimit: 10; fill: #e67e24; fill-rule: nonzero; opacity: 1;" transform=" matrix(1 0 0 1 0 0) "/>
  <rect x="123.12" y="195.07" rx="0" ry="0" width="265.74" height="34.66" style="stroke: none; stroke-width: 1; stroke-dasharray: none; stroke-linecap: butt; stroke-linejoin: miter; stroke-miterlimit: 10; fill: #e67e24; fill-rule: nonzero; opacity: 1;" transform=" matrix(1 0 0 1 0 0) "/>
  <polygon points="256,128.35 222.63,195.07 289.36,195.07 " style="stroke: none; stroke-width: 1; stroke-dasharray: none; stroke-linecap: butt; stroke-linejoin: miter; stroke-miterlimit: 10; fill: #F2F2F2; fill-rule: nonzero; opacity: 1;" transform="  matrix(1 0 0 1 0 0) "/>
  <path d="M 133.442 268.993 H 17.332 V 121.686 c 0 -4.786 -3.88 -8.666 -8.666 -8.666 S 0 116.9 0 121.686 v 155.973 c 0 4.786 3.88 8.666 8.666 8.666 h 2.6 v 103.99 c 0 4.786 3.88 8.666 8.666 8.666 s 8.666 -3.88 8.666 -8.666 v -64.994 h 84.914 v 64.994 c 0 4.786 3.88 8.666 8.666 8.666 s 8.666 -3.88 8.666 -8.666 v -103.99 h 2.6 c 4.786 0 8.666 -3.88 8.666 -8.666 C 142.108 272.873 138.228 268.993 133.442 268.993 z M 113.511 307.989 H 28.597 v -21.665 h 84.914 V 307.989 z" style="stroke: none; stroke-width: 1; stroke-dasharray: none; stroke-linecap: butt; stroke-linejoin: miter; stroke-miterlimit: 10; fill: #000004; fill-rule: nonzero; opacity: 1;" transform=" matrix(1 0 0 1 0 0) " stroke-linecap="round" />
  <path d="M 503.334 113.02 c -4.787 0 -8.666 3.88 -8.666 8.666 v 147.307 H 378.546 c -4.787 0 -8.666 3.88 -8.666 8.666 c 0 4.786 3.879 8.666 8.666 8.666 h 2.6 v 103.99 c 0 4.786 3.879 8.666 8.666 8.666 s 8.666 -3.88 8.666 -8.666 v -64.994 h 84.925 v 64.994 c 0 4.786 3.879 8.666 8.666 8.666 c 4.787 0 8.666 -3.88 8.666 -8.666 v -103.99 h 2.6 c 4.787 0 8.666 -3.88 8.666 -8.666 V 121.685 C 512 116.9 508.12 113.02 503.334 113.02 z M 483.403 307.989 h -84.925 v -21.665 h 84.925 V 307.989 z" style="stroke: none; stroke-width: 1; stroke-dasharray: none; stroke-linecap: butt; stroke-linejoin: miter; stroke-miterlimit: 10; fill: #000004; fill-rule: nonzero; opacity: 1;" transform=" matrix(1 0 0 1 0 0) " stroke-linecap="round" />
  <path d="M 388.866 238.376 c 4.787 0 8.666 -3.88 8.666 -8.666 v -25.996 h 7.121 c 4.787 0 8.666 -3.88 8.666 -8.666 s -3.879 -8.666 -8.666 -8.666 h -15.787 h -94.152 l -30.966 -61.933 c -1.469 -2.936 -4.469 -4.79 -7.751 -4.79 c -3.283 0 -6.283 1.854 -7.751 4.79 l -30.967 61.933 h -94.152 h -15.786 c -4.786 0 -8.666 3.88 -8.666 8.666 s 3.88 8.666 8.666 8.666 h 7.12 v 25.996 c 0 4.786 3.88 8.666 8.666 8.666 H 152.3 v 151.933 c 0 4.786 3.88 8.666 8.666 8.666 s 8.666 -3.88 8.666 -8.666 V 238.376 h 125.654 c 4.787 0 8.666 -3.88 8.666 -8.666 s -3.879 -8.666 -8.666 -8.666 H 131.792 v -17.33 H 380.2 v 17.33 h -53.718 c -4.787 0 -8.666 3.88 -8.666 8.666 s 3.879 8.666 8.666 8.666 h 15.879 v 151.933 c 0 4.786 3.879 8.666 8.666 8.666 c 4.787 0 8.666 -3.88 8.666 -8.666 V 238.376 H 388.866 z M 236.656 186.383 l 19.34 -38.681 l 19.341 38.681 H 236.656 z" style="stroke: none; stroke-width: 1; stroke-dasharray: none; stroke-linecap: butt; stroke-linejoin: miter; stroke-miterlimit: 10; fill: #000004; fill-rule: nonzero; opacity: 1;" transform=" matrix(1 0 0 1 0 0) " stroke-linecap="round" />
</g>
  <g transform="translate(149.64 188.85) scale(1.58 1.17)">
   <text font-family="Mistress Script Script" font-size="40" font-weight="bold" style="stroke: none; stroke-width: 1; stroke-dasharray: none; stroke-linecap: butt; stroke-linejoin: miter; stroke-miterlimit: 10; fill: #f08827; fill-rule: nonzero; opacity: 1;" ><tspan x="-87.88" y="8.98" style="stroke: none; stroke-width: 0; stroke-dasharray: none; stroke-linecap: butt; stroke-linejoin: miter; stroke-miterlimit: 4; fill: #f08827; fill-rule: ; opacity: 1;">R</tspan><tspan x="-62.96" y="8.98" style="stroke: none; stroke-width: 0; stroke-dasharray: none; stroke-linecap: butt; stroke-linejoin: miter; stroke-miterlimit: 4; fill: #f08827; fill-rule: ; opacity: 1;">e</tspan><tspan x="-43.64" y="8.98" style="stroke: none; stroke-width: 0; stroke-dasharray: none; stroke-linecap: butt; stroke-linejoin: miter; stroke-miterlimit: 4; fill: #f08827; fill-rule: ; opacity: 1;">s</tspan><tspan x="-27.08" y="8.98" style="stroke: none; stroke-width: 0; stroke-dasharray: none; stroke-linecap: butt; stroke-linejoin: miter; stroke-miterlimit: 4; fill: #f08827; fill-rule: ; opacity: 1;">t</tspan><tspan x="-15.52" y="8.98" style="stroke: none; stroke-width: 0; stroke-dasharray: none; stroke-linecap: butt; stroke-linejoin: miter; stroke-miterlimit: 4; fill: #f08827; fill-rule: ; opacity: 1;">u</tspan><tspan x="5.76" y="8.98" style="stroke: none; stroke-width: 0; stroke-dasharray: none; stroke-linecap: butt; stroke-linejoin: miter; stroke-miterlimit: 4; fill: #f08827; fill-rule: ; opacity: 1;">r</tspan><tspan x="22.8" y="8.98" style="stroke: none; stroke-width: 0; stroke-dasharray: none; stroke-linecap: butt; stroke-linejoin: miter; stroke-miterlimit: 4; fill: #f08827; fill-rule: ; opacity: 1;">a</tspan><tspan x="43.76" y="8.98" style="stroke: none; stroke-width: 0; stroke-dasharray: none; stroke-linecap: butt; stroke-linejoin: miter; stroke-miterlimit: 4; fill: #f08827; fill-rule: ; opacity: 1;">n</tspan><tspan x="66.8" y="8.98" style="stroke: none; stroke-width: 0; stroke-dasharray: none; stroke-linecap: butt; stroke-linejoin: miter; stroke-miterlimit: 4; fill: #f08827; fill-rule: ; opacity: 1;">o</tspan></text>
 </g>
<g style="stroke: none; stroke-width: 1; stroke-dasharray: none; stroke-linecap: butt; stroke-linejoin: miter; stroke-miterlimit: 10; fill: none; fill-rule: nonzero; opacity: 1;" transform="translate(75.35000000000002 44.91999999999996) scale(0.06 0.06)" >
  <path d="M 448.496 300.112 H 63.504 c -17.731 0 -32.105 15.768 -32.105 35.219 v 19.518 c 0 19.452 14.374 35.219 32.105 35.219 h 384.992 c 17.731 0 32.106 -15.768 32.106 -35.219 v -19.516 C 480.601 315.881 466.227 300.112 448.496 300.112 z" style="stroke: none; stroke-width: 1; stroke-dasharray: none; stroke-linecap: butt; stroke-linejoin: miter; stroke-miterlimit: 10; fill: #C4A174; fill-rule: nonzero; opacity: 1;" transform=" matrix(1 0 0 1 0 0) " stroke-linecap="round" />
  <path d="M 97.474 354.849 v -19.518 c 0 -19.452 14.374 -35.219 32.106 -35.219 H 63.505 c -17.731 0 -32.106 15.768 -32.106 35.219 v 19.518 c 0 19.452 14.374 35.219 32.106 35.219 h 66.075 C 111.848 390.068 97.474 374.3 97.474 354.849 z" style="stroke: none; stroke-width: 1; stroke-dasharray: none; stroke-linecap: butt; stroke-linejoin: miter; stroke-miterlimit: 10; fill: #B58E64; fill-rule: nonzero; opacity: 1;" transform=" matrix(1 0 0 1 0 0) " stroke-linecap="round" />
  <rect x="57.04" y="232.37" rx="0" ry="0" width="400.37" height="67.74" style="stroke: none; stroke-width: 1; stroke-dasharray: none; stroke-linecap: butt; stroke-linejoin: miter; stroke-miterlimit: 10; fill: #F97E62; fill-rule: nonzero; opacity: 1;" transform=" matrix(1 0 0 1 0 0) "/>
  <rect x="57.04" y="232.37" rx="0" ry="0" width="56.65" height="67.74" style="stroke: none; stroke-width: 1; stroke-dasharray: none; stroke-linecap: butt; stroke-linejoin: miter; stroke-miterlimit: 10; fill: #E86B56; fill-rule: nonzero; opacity: 1;" transform=" matrix(1 0 0 1 0 0) "/>
  <path d="M 461.077 390.068 H 50.923 c -11.268 0 -20.402 9.135 -20.402 20.402 v 38.427 c 0 29.602 23.998 53.6 53.6 53.6 h 343.76 c 29.602 0 53.6 -23.998 53.6 -53.6 V 410.47 C 481.48 399.203 472.345 390.068 461.077 390.068 z" style="stroke: none; stroke-width: 1; stroke-dasharray: none; stroke-linecap: butt; stroke-linejoin: miter; stroke-miterlimit: 10; fill: #F4C67D; fill-rule: nonzero; opacity: 1;" transform=" matrix(1 0 0 1 0 0) " stroke-linecap="round" />
  <path d="M 50.923 232.372 h 410.155 c 11.268 0 20.402 -9.135 20.402 -20.402 v -5.069 c 0 -108.99 -88.354 -197.344 -197.344 -197.344 h -56.272 c -108.99 0 -197.344 88.354 -197.344 197.344 v 5.069 C 30.521 223.238 39.655 232.372 50.923 232.372 z" style="stroke: none; stroke-width: 1; stroke-dasharray: none; stroke-linecap: butt; stroke-linejoin: miter; stroke-miterlimit: 10; fill: #F4C67D; fill-rule: nonzero; opacity: 1;" transform=" matrix(1 0 0 1 0 0) " stroke-linecap="round" />
  <path d="M 155.278 502.5 H 84.12 c -29.607 0 -53.597 -24.003 -53.597 -53.597 v -38.425 c 0 -11.271 9.136 -20.407 20.407 -20.407 h 71.158 c -11.271 0 -20.407 9.136 -20.407 20.407 v 38.425 C 101.682 478.496 125.671 502.5 155.278 502.5 z" style="stroke: none; stroke-width: 1; stroke-dasharray: none; stroke-linecap: butt; stroke-linejoin: miter; stroke-miterlimit: 10; fill: #E0B16E; fill-rule: nonzero; opacity: 1;" transform=" matrix(1 0 0 1 0 0) " stroke-linecap="round" />
  <path d="M 101.682 206.901 v 5.07 c 0 11.271 9.136 20.394 20.407 20.394 H 50.931 c -11.271 0 -20.407 -9.123 -20.407 -20.394 v -5.07 c 0 -108.986 88.35 -197.349 197.337 -197.349 h 56.278 c 2.491 0 4.981 0.051 7.446 0.14 C 186.041 13.606 101.682 100.405 101.682 206.901 z" style="stroke: none; stroke-width: 1; stroke-dasharray: none; stroke-linecap: butt; stroke-linejoin: miter; stroke-miterlimit: 10; fill: #E0B16E; fill-rule: nonzero; opacity: 1;" transform=" matrix(1 0 0 1 0 0) " stroke-linecap="round" />
  <polyline points="297.2,300.11 354.56,357.47 408.88,303.15 " style="stroke: none; stroke-width: 1; stroke-dasharray: none; stroke-linecap: butt; stroke-linejoin: miter; stroke-miterlimit: 10; fill: #F4C67D; fill-rule: nonzero; opacity: 1;" transform="  matrix(1 0 0 1 0 0) "/>
  <path d="M 491.01 211.942 v -5.069 C 491.01 92.803 398.206 0 284.135 0 h -56.271 C 113.794 0 20.991 92.803 20.991 206.874 v 5.069 c 0 16.505 13.427 29.932 29.933 29.932 h 323.253 c 5.264 0 9.53 -4.267 9.53 -9.53 s -4.266 -9.53 -9.53 -9.53 H 50.923 c -5.995 0 -10.873 -4.877 -10.873 -10.872 v -5.069 C 40.051 103.313 124.304 19.06 227.864 19.06 h 56.271 c 103.562 0 187.815 84.252 187.815 187.814 v 5.069 c 0 5.995 -4.878 10.872 -10.873 10.872 h -48.779 c -5.264 0 -9.53 4.267 -9.53 9.53 s 4.266 9.53 9.53 9.53 h 35.579 v 48.681 H 66.572 v -26.444 c 0 -5.263 -4.266 -9.53 -9.53 -9.53 s -9.53 4.267 -9.53 9.53 v 29.883 c -15.042 6.752 -25.642 22.725 -25.642 41.311 v 19.518 c 0 12.115 4.51 23.112 11.81 31.179 c -7.669 5.426 -12.689 14.356 -12.689 24.444 v 38.425 c 0 34.81 28.32 63.13 63.13 63.13 h 27.026 c 5.264 0 9.53 -4.267 9.53 -9.53 s -4.266 -9.53 -9.53 -9.53 H 84.12 c -24.299 0 -44.07 -19.769 -44.07 -44.07 v -38.425 c 0 -5.995 4.878 -10.873 10.873 -10.873 h 12.581 h 384.991 h 12.581 c 5.995 0 10.873 4.877 10.873 10.873 v 38.425 c 0 24.3 -19.77 44.07 -44.071 44.07 H 141.643 c -5.264 0 -9.53 4.267 -9.53 9.53 s 4.266 9.53 9.53 9.53 H 427.88 c 34.812 0 63.131 -28.32 63.131 -63.13 v -38.425 c 0 -10.087 -5.02 -19.018 -12.689 -24.444 c 7.3 -8.065 11.81 -19.064 11.81 -31.179 v -19.518 c 0 -17.561 -9.464 -32.782 -23.195 -40.106 v -53.904 C 480.645 238.564 491.01 226.441 491.01 211.942 z M 388.91 309.615 l -34.348 34.349 l -34.35 -34.349 H 388.91 z M 471.072 354.822 c 0 14.164 -10.127 25.689 -22.576 25.689 H 63.505 c -12.449 0 -22.576 -11.524 -22.576 -25.689 v -19.518 c 0 -14.164 10.127 -25.689 22.576 -25.689 h 229.752 l 54.566 54.564 c 1.862 1.86 4.301 2.792 6.74 2.792 s 4.878 -0.93 6.74 -2.792 l 54.316 -54.316 l -0.248 -0.248 h 33.127 c 12.449 0 22.576 11.524 22.576 25.689 v 19.518 H 471.072 z" style="stroke: none; stroke-width: 1; stroke-dasharray: none; stroke-linecap: butt; stroke-linejoin: miter; stroke-miterlimit: 10; fill: rgb(0,0,0); fill-rule: nonzero; opacity: 1;" transform=" matrix(1 0 0 1 0 0) " stroke-linecap="round" />
  <circle cx="156.42" cy="64.55" r="9.53" style="stroke: none; stroke-width: 1; stroke-dasharray: none; stroke-linecap: butt; stroke-linejoin: miter; stroke-miterlimit: 10; fill: rgb(0,0,0); fill-rule: nonzero; opacity: 1;" transform="  matrix(1 0 0 1 0 0) "/>
  <circle cx="222.8" cy="64.55" r="9.53" style="stroke: none; stroke-width: 1; stroke-dasharray: none; stroke-linecap: butt; stroke-linejoin: miter; stroke-miterlimit: 10; fill: rgb(0,0,0); fill-rule: nonzero; opacity: 1;" transform="  matrix(1 0 0 1 0 0) "/>
  <circle cx="289.2" cy="64.55" r="9.53" style="stroke: none; stroke-width: 1; stroke-dasharray: none; stroke-linecap: butt; stroke-linejoin: miter; stroke-miterlimit: 10; fill: rgb(0,0,0); fill-rule: nonzero; opacity: 1;" transform="  matrix(1 0 0 1 0 0) "/>
  <circle cx="355.59" cy="64.55" r="9.53" style="stroke: none; stroke-width: 1; stroke-dasharray: none; stroke-linecap: butt; stroke-linejoin: miter; stroke-miterlimit: 10; fill: rgb(0,0,0); fill-rule: nonzero; opacity: 1;" transform="  matrix(1 0 0 1 0 0) "/>
</g>
<g style="stroke: none; stroke-width: 1; stroke-dasharray: none; stroke-linecap: butt; stroke-linejoin: miter; stroke-miterlimit: 10; fill: none; fill-rule: nonzero; opacity: 1;" transform="translate(81.04999999999995 32.41999999999996) scale(0.95 0.95)" >
  <path d="M 37.976 12.951 h -31 c -1.1 0 -2 -0.9 -2 -2 V 7.122 c 0 -1.1 0.9 -2 2 -2 h 31 c 1.1 0 2 0.9 2 2 v 3.829 C 39.976 12.051 39.076 12.951 37.976 12.951 z" style="stroke: none; stroke-width: 1; stroke-dasharray: none; stroke-linecap: butt; stroke-linejoin: miter; stroke-miterlimit: 10; fill: #D2D5D7; fill-rule: nonzero; opacity: 1;" transform=" matrix(1 0 0 1 0 0) " stroke-linecap="round" />
  <path d="M 36.561 5.122 H 8.39 V 1.707 C 8.39 0.764 9.155 0 10.098 0 l 24.756 1.707 c 0.943 0 1.707 0.764 1.707 1.707 V 5.122 z" style="stroke: none; stroke-width: 1; stroke-dasharray: none; stroke-linecap: butt; stroke-linejoin: miter; stroke-miterlimit: 10; fill: #E6E6E6; fill-rule: nonzero; opacity: 1;" transform=" matrix(1 0 0 1 0 0) " stroke-linecap="round" />
  <path d="M 7.976 12.951 l 2.998 30.293 c 0 0.939 0.768 1.707 1.707 1.707 h 19.634 c 0.939 0 1.707 -0.768 1.707 -1.707 l 2.998 -30.293 H 7.976 z" style="stroke: none; stroke-width: 1; stroke-dasharray: none; stroke-linecap: butt; stroke-linejoin: miter; stroke-miterlimit: 10; fill: #659C35; fill-rule: nonzero; opacity: 1;" transform=" matrix(1 0 0 1 0 0) " stroke-linecap="round" />
  <path d="M 15.691 23.951 c 1.558 -2.07 4.028 -3.415 6.818 -3.415 c 2.79 0 5.26 1.345 6.818 3.415 l 6.695 -1.195 l 0.999 -9.805 H 7.976 l 0.999 9.805 L 15.691 23.951 z" style="stroke: none; stroke-width: 1; stroke-dasharray: none; stroke-linecap: butt; stroke-linejoin: miter; stroke-miterlimit: 10; fill: #E6E6E6; fill-rule: nonzero; opacity: 1;" transform=" matrix(1 0 0 1 0 0) " stroke-linecap="round" />
  <path d="M 29.326 31.951 c -1.558 2.07 -4.028 3.415 -6.818 3.415 s -5.26 -1.345 -6.818 -3.415 L 9.974 33 l 0.999 10.244 c 0 0.939 0.768 1.707 1.707 1.707 h 19.634 c 0.939 0 1.707 -0.768 1.707 -1.707 L 35.022 33 L 29.326 31.951 z" style="stroke: none; stroke-width: 1; stroke-dasharray: none; stroke-linecap: butt; stroke-linejoin: miter; stroke-miterlimit: 10; fill: #E6E6E6; fill-rule: nonzero; opacity: 1;" transform=" matrix(1 0 0 1 0 0) " stroke-linecap="round" />
  <ellipse cx="22.48" cy="27.997999999999998" rx="6.5" ry="5.778" style="stroke: none; stroke-width: 1; stroke-dasharray: none; stroke-linecap: butt; stroke-linejoin: miter; stroke-miterlimit: 10; fill: #FFFFFF; fill-rule: nonzero; opacity: 1;" transform=" matrix(1 0 0 1 0 0) "/>
</g>
<g style="stroke: none; stroke-width: 1; stroke-dasharray: none; stroke-linecap: butt; stroke-linejoin: miter; stroke-miterlimit: 10; fill: none; fill-rule: nonzero; opacity: 1;" transform="translate(148.04999999999995 32.43000000000001) scale(0.95 0.95)" >
  <path d="M 37.976 12.951 h -31 c -1.1 0 -2 -0.9 -2 -2 V 7.122 c 0 -1.1 0.9 -2 2 -2 h 31 c 1.1 0 2 0.9 2 2 v 3.829 C 39.976 12.051 39.076 12.951 37.976 12.951 z" style="stroke: none; stroke-width: 1; stroke-dasharray: none; stroke-linecap: butt; stroke-linejoin: miter; stroke-miterlimit: 10; fill: #D2D5D7; fill-rule: nonzero; opacity: 1;" transform=" matrix(1 0 0 1 0 0) " stroke-linecap="round" />
  <path d="M 36.561 5.122 H 8.39 V 1.707 C 8.39 0.764 9.155 0 10.098 0 l 24.756 1.707 c 0.943 0 1.707 0.764 1.707 1.707 V 5.122 z" style="stroke: none; stroke-width: 1; stroke-dasharray: none; stroke-linecap: butt; stroke-linejoin: miter; stroke-miterlimit: 10; fill: #E6E6E6; fill-rule: nonzero; opacity: 1;" transform=" matrix(1 0 0 1 0 0) " stroke-linecap="round" />
  <path d="M 7.976 12.951 l 2.998 30.293 c 0 0.939 0.768 1.707 1.707 1.707 h 19.634 c 0.939 0 1.707 -0.768 1.707 -1.707 l 2.998 -30.293 H 7.976 z" style="stroke: none; stroke-width: 1; stroke-dasharray: none; stroke-linecap: butt; stroke-linejoin: miter; stroke-miterlimit: 10; fill: #659C35; fill-rule: nonzero; opacity: 1;" transform=" matrix(1 0 0 1 0 0) " stroke-linecap="round" />
  <path d="M 15.691 23.951 c 1.558 -2.07 4.028 -3.415 6.818 -3.415 c 2.79 0 5.26 1.345 6.818 3.415 l 6.695 -1.195 l 0.999 -9.805 H 7.976 l 0.999 9.805 L 15.691 23.951 z" style="stroke: none; stroke-width: 1; stroke-dasharray: none; stroke-linecap: butt; stroke-linejoin: miter; stroke-miterlimit: 10; fill: #E6E6E6; fill-rule: nonzero; opacity: 1;" transform=" matrix(1 0 0 1 0 0) " stroke-linecap="round" />
  <path d="M 29.326 31.951 c -1.558 2.07 -4.028 3.415 -6.818 3.415 s -5.26 -1.345 -6.818 -3.415 L 9.974 33 l 0.999 10.244 c 0 0.939 0.768 1.707 1.707 1.707 h 19.634 c 0.939 0 1.707 -0.768 1.707 -1.707 L 35.022 33 L 29.326 31.951 z" style="stroke: none; stroke-width: 1; stroke-dasharray: none; stroke-linecap: butt; stroke-linejoin: miter; stroke-miterlimit: 10; fill: #E6E6E6; fill-rule: nonzero; opacity: 1;" transform=" matrix(1 0 0 1 0 0) " stroke-linecap="round" />
  <ellipse cx="22.48" cy="27.997999999999998" rx="6.5" ry="5.778" style="stroke: none; stroke-width: 1; stroke-dasharray: none; stroke-linecap: butt; stroke-linejoin: miter; stroke-miterlimit: 10; fill: #FFFFFF; fill-rule: nonzero; opacity: 1;" transform=" matrix(1 0 0 1 0 0) "/>
</g>
<g style="stroke: none; stroke-width: 1; stroke-dasharray: none; stroke-linecap: butt; stroke-linejoin: miter; stroke-miterlimit: 10; fill: none; fill-rule: nonzero; opacity: 1;" transform="translate(160.80999999999995 45.81) rotate(359.91) scale(0.09 0.09)" >
  <polygon points="503.92,341.18 8.09,341.18 22,170.87 489.99,170.87 " style="stroke: none; stroke-width: 1; stroke-dasharray: none; stroke-linecap: butt; stroke-linejoin: miter; stroke-miterlimit: 10; fill: #E6E6E6; fill-rule: nonzero; opacity: 1;" transform="  matrix(1 0 0 1 0 0) "/>
  <polygon points="503.92,341.18 249.4,341.18 278.31,170.87 489.99,170.87 " style="stroke: none; stroke-width: 1; stroke-dasharray: none; stroke-linecap: butt; stroke-linejoin: miter; stroke-miterlimit: 10; fill: #F2F2F2; fill-rule: nonzero; opacity: 1;" transform="  matrix(1 0 0 1 0 0) "/>
  <path d="M 138.418 238.139 c 4.466 0 8.084 -3.62 8.084 -8.084 c 0 -4.465 -3.618 -8.084 -8.084 -8.084 h -23.825 c -4.466 0 -8.084 3.62 -8.084 8.084 v 51.888 c 0 4.465 3.618 8.084 8.084 8.084 h 23.825 c 4.466 0 8.084 -3.62 8.084 -8.084 c 0 -4.465 -3.618 -8.084 -8.084 -8.084 h -15.741 v -9.774 h 7.132 c 4.466 0 8.084 -3.62 8.084 -8.084 c 0 -4.465 -3.619 -8.084 -8.084 -8.084 h -7.132 v -9.775 h 15.741 V 238.139 z" style="stroke: none; stroke-width: 1; stroke-dasharray: none; stroke-linecap: butt; stroke-linejoin: miter; stroke-miterlimit: 10; fill: rgb(0,0,0); fill-rule: nonzero; opacity: 1;" transform=" matrix(1 0 0 1 0 0) " stroke-linecap="round" />
  <path d="M 175.806 238.139 h 12.973 c 4.466 0 8.084 -3.62 8.084 -8.084 c 0 -4.465 -3.618 -8.084 -8.084 -8.084 h -12.973 c -11.61 0 -21.056 9.446 -21.056 21.057 s 9.446 21.057 21.056 21.057 c 2.696 0 4.888 2.192 4.888 4.887 c 0 2.695 -2.192 4.888 -4.888 4.888 h -12.971 c -4.466 0 -8.084 3.62 -8.084 8.084 c 0 4.465 3.618 8.084 8.084 8.084 h 12.971 c 11.61 0 21.057 -9.446 21.057 -21.057 c 0 -11.61 -9.447 -21.056 -21.057 -21.056 c -2.695 0 -4.887 -2.192 -4.887 -4.888 S 173.111 238.139 175.806 238.139 z" style="stroke: none; stroke-width: 1; stroke-dasharray: none; stroke-linecap: butt; stroke-linejoin: miter; stroke-miterlimit: 10; fill: rgb(0,0,0); fill-rule: nonzero; opacity: 1;" transform=" matrix(1 0 0 1 0 0) " stroke-linecap="round" />
  <path d="M 239.72 238.139 c 4.466 0 8.084 -3.62 8.084 -8.084 c 0 -4.465 -3.618 -8.084 -8.084 -8.084 h -23.825 c -4.466 0 -8.084 3.62 -8.084 8.084 v 51.888 c 0 4.465 3.618 8.084 8.084 8.084 h 23.825 c 4.466 0 8.084 -3.62 8.084 -8.084 c 0 -4.465 -3.618 -8.084 -8.084 -8.084 H 223.98 v -9.774 h 7.132 c 4.466 0 8.084 -3.62 8.084 -8.084 c 0 -4.465 -3.618 -8.084 -8.084 -8.084 h -7.132 v -9.775 h 15.741 V 238.139 z" style="stroke: none; stroke-width: 1; stroke-dasharray: none; stroke-linecap: butt; stroke-linejoin: miter; stroke-miterlimit: 10; fill: rgb(0,0,0); fill-rule: nonzero; opacity: 1;" transform=" matrix(1 0 0 1 0 0) " stroke-linecap="round" />
  <path d="M 401.343 238.139 c 4.466 0 8.084 -3.62 8.084 -8.084 c 0 -4.465 -3.618 -8.084 -8.084 -8.084 h -23.825 c -4.466 0 -8.084 3.62 -8.084 8.084 v 51.888 c 0 4.465 3.618 8.084 8.084 8.084 h 23.825 c 4.466 0 8.084 -3.62 8.084 -8.084 c 0 -4.465 -3.618 -8.084 -8.084 -8.084 h -15.741 v -9.774 h 7.134 c 4.466 0 8.084 -3.62 8.084 -8.084 c 0 -4.465 -3.618 -8.084 -8.084 -8.084 h -7.134 v -9.775 h 15.741 V 238.139 z" style="stroke: none; stroke-width: 1; stroke-dasharray: none; stroke-linecap: butt; stroke-linejoin: miter; stroke-miterlimit: 10; fill: rgb(0,0,0); fill-rule: nonzero; opacity: 1;" transform=" matrix(1 0 0 1 0 0) " stroke-linecap="round" />
  <path d="M 82.179 290.029 c 1.283 0 2.586 -0.307 3.799 -0.954 c 3.939 -2.102 5.428 -7 3.326 -10.939 l -7.954 -14.905 c 6.355 -3.934 10.611 -10.949 10.611 -18.957 c 0 -12.299 -10.005 -22.304 -22.303 -22.304 H 53.443 c -4.466 0 -8.084 3.62 -8.084 8.084 v 51.888 c 0 4.465 3.618 8.084 8.084 8.084 s 8.084 -3.62 8.084 -8.084 v -15.364 h 3.281 l 10.23 19.171 C 76.494 288.477 79.289 290.029 82.179 290.029 z M 69.658 250.41 h -8.131 v -12.271 h 8.131 c 3.384 0 6.134 2.752 6.134 6.135 C 75.792 247.658 73.041 250.41 69.658 250.41 z" style="stroke: none; stroke-width: 1; stroke-dasharray: none; stroke-linecap: butt; stroke-linejoin: miter; stroke-miterlimit: 10; fill: rgb(0,0,0); fill-rule: nonzero; opacity: 1;" transform=" matrix(1 0 0 1 0 0) " stroke-linecap="round" />
  <path d="M 305.355 244.275 c 0 -12.299 -10.005 -22.304 -22.303 -22.304 h -16.215 c -4.466 0 -8.084 3.62 -8.084 8.084 v 51.888 c 0 4.465 3.618 8.084 8.084 8.084 s 8.084 -3.62 8.084 -8.084 v -15.364 h 3.281 l 10.23 19.171 c 1.456 2.727 4.25 4.279 7.14 4.279 c 1.283 0 2.586 -0.307 3.798 -0.954 c 3.939 -2.102 5.428 -7 3.326 -10.939 l -7.954 -14.905 C 301.099 259.297 305.355 252.282 305.355 244.275 z M 283.052 250.41 h -8.131 v -12.271 h 8.131 c 3.384 0 6.134 2.752 6.134 6.135 C 289.186 247.658 286.435 250.41 283.052 250.41 z" style="stroke: none; stroke-width: 1; stroke-dasharray: none; stroke-linecap: butt; stroke-linejoin: miter; stroke-miterlimit: 10; fill: rgb(0,0,0); fill-rule: nonzero; opacity: 1;" transform=" matrix(1 0 0 1 0 0) " stroke-linecap="round" />
  <path d="M 348.674 227.198 l -12.049 31.88 l -12.05 -31.88 c -1.579 -4.176 -6.243 -6.282 -10.42 -4.704 s -6.283 6.243 -4.704 10.42 l 19.611 51.888 c 1.189 3.144 4.199 5.226 7.563 5.226 s 6.374 -2.081 7.563 -5.227 l 19.61 -51.888 c 1.579 -4.177 -0.527 -8.842 -4.704 -10.42 C 354.92 220.916 350.254 223.021 348.674 227.198 z" style="stroke: none; stroke-width: 1; stroke-dasharray: none; stroke-linecap: butt; stroke-linejoin: miter; stroke-miterlimit: 10; fill: rgb(0,0,0); fill-rule: nonzero; opacity: 1;" transform=" matrix(1 0 0 1 0 0) " stroke-linecap="round" />
  <path d="M 428.298 221.971 c -4.466 0 -8.084 3.62 -8.084 8.084 v 51.888 c 0 4.465 3.618 8.084 8.084 8.084 h 6.435 c 17.595 0 31.909 -14.314 31.909 -31.909 v -4.239 c 0 -17.595 -14.313 -31.909 -31.909 -31.909 h -6.435 V 221.971 z M 436.382 238.226 c 7.907 0.827 14.09 7.532 14.09 15.654 v 4.239 c 0 8.122 -6.183 14.828 -14.09 15.654 V 238.226 z" style="stroke: none; stroke-width: 1; stroke-dasharray: none; stroke-linecap: butt; stroke-linejoin: miter; stroke-miterlimit: 10; fill: rgb(0,0,0); fill-rule: nonzero; opacity: 1;" transform=" matrix(1 0 0 1 0 0) " stroke-linecap="round" />
  <path d="M 56.593 333.07 H 16.855 l 12.6 -154.139 h 453.089 l 1.809 22.115 c 0.364 4.45 4.253 7.769 8.716 7.399 c 4.45 -0.363 7.762 -4.266 7.398 -8.716 l -2.414 -29.541 c -0.342 -4.196 -3.847 -7.426 -8.057 -7.426 H 22.005 c -4.209 0 -7.715 3.23 -8.057 7.426 L 0.027 340.495 c -0.184 2.251 0.581 4.476 2.113 6.136 c 1.531 1.661 3.685 2.606 5.945 2.606 h 48.509 c 4.466 0 8.084 -3.62 8.084 -8.084 C 64.677 336.689 61.058 333.07 56.593 333.07 z" style="stroke: none; stroke-width: 1; stroke-dasharray: none; stroke-linecap: butt; stroke-linejoin: miter; stroke-miterlimit: 10; fill: rgb(0,0,0); fill-rule: nonzero; opacity: 1;" transform=" matrix(1 0 0 1 0 0) " stroke-linecap="round" />
  <path d="M 511.973 340.494 l -9.575 -117.122 c -0.363 -4.45 -4.267 -7.761 -8.716 -7.399 c -4.45 0.363 -7.762 4.266 -7.398 8.716 l 8.86 108.38 H 83.54 c -4.466 0 -8.084 3.62 -8.084 8.084 c 0 4.465 3.619 8.084 8.084 8.084 h 420.377 c 2.259 0 4.414 -0.944 5.945 -2.605 C 511.392 344.972 512.157 342.746 511.973 340.494 z" style="stroke: none; stroke-width: 1; stroke-dasharray: none; stroke-linecap: butt; stroke-linejoin: miter; stroke-miterlimit: 10; fill: rgb(0,0,0); fill-rule: nonzero; opacity: 1;" transform=" matrix(1 0 0 1 0 0) " stroke-linecap="round" />
</g>
  <g transform="translate(143.99 230.99) scale(0.64 0.71)">
   <text font-family="Mistress" font-size="40" font-weight="normal" style="stroke: none; stroke-width: 1; stroke-dasharray: none; stroke-linecap: butt; stroke-linejoin: miter; stroke-miterlimit: 10; fill: #e67e22; fill-rule: nonzero; opacity: 1;" ><tspan x="-80.88" y="8.98" style="stroke: none; stroke-width: 0; stroke-dasharray: none; stroke-linecap: butt; stroke-linejoin: miter; stroke-miterlimit: 4; fill: #e67e22; fill-rule: ; opacity: 1;">W</tspan><tspan x="-45.92" y="8.98" style="stroke: none; stroke-width: 0; stroke-dasharray: none; stroke-linecap: butt; stroke-linejoin: miter; stroke-miterlimit: 4; fill: #e67e22; fill-rule: ; opacity: 1;">e</tspan><tspan x="-26.6" y="8.98" style="stroke: none; stroke-width: 0; stroke-dasharray: none; stroke-linecap: butt; stroke-linejoin: miter; stroke-miterlimit: 4; fill: #e67e22; fill-rule: ; opacity: 1;"> </tspan><tspan x="-14.56" y="8.98" style="stroke: none; stroke-width: 0; stroke-dasharray: none; stroke-linecap: butt; stroke-linejoin: miter; stroke-miterlimit: 4; fill: #e67e22; fill-rule: ; opacity: 1;">C</tspan><tspan x="11" y="8.98" style="stroke: none; stroke-width: 0; stroke-dasharray: none; stroke-linecap: butt; stroke-linejoin: miter; stroke-miterlimit: 4; fill: #e67e22; fill-rule: ; opacity: 1;">a</tspan><tspan x="31.96" y="8.98" style="stroke: none; stroke-width: 0; stroke-dasharray: none; stroke-linecap: butt; stroke-linejoin: miter; stroke-miterlimit: 4; fill: #e67e22; fill-rule: ; opacity: 1;">r</tspan><tspan x="49" y="8.98" style="stroke: none; stroke-width: 0; stroke-dasharray: none; stroke-linecap: butt; stroke-linejoin: miter; stroke-miterlimit: 4; fill: #e67e22; fill-rule: ; opacity: 1;">e</tspan><tspan x="68.32" y="8.98" style="stroke: none; stroke-width: 0; stroke-dasharray: none; stroke-linecap: butt; stroke-linejoin: miter; stroke-miterlimit: 4; fill: #e67e22; fill-rule: ; opacity: 1;">.</tspan><tspan x="74.6" y="8.98" style="stroke: none; stroke-width: 0; stroke-dasharray: none; stroke-linecap: butt; stroke-linejoin: miter; stroke-miterlimit: 4; fill: #e67e22; fill-rule: ; opacity: 1;">.</tspan></text>
 </g>
</svg>